<?xml version="1.0" encoding="utf-8"?>
<!-- Generator: Adobe Illustrator 24.2.3, SVG Export Plug-In . SVG Version: 6.00 Build 0)  -->
<svg version="1.1" id="Layer_1" xmlns="http://www.w3.org/2000/svg" xmlns:xlink="http://www.w3.org/1999/xlink" x="0px" y="0px"
	 viewBox="0 0 504 117.5" style="enable-background:new 0 0 504 117.5;" xml:space="preserve">
<style type="text/css">
	.st0{fill:#6001D2;}
</style>
<g>
	<g>
		<path class="st0" d="M63.5,74.3c-5.7,9.4-15.3,14.3-28.2,14.2c-19.1-0.1-31.2-12.4-31.1-31C4.3,39.8,18,26.6,35.4,26.7
			c18,0.1,30.4,12.8,30.2,32c0,1.9-0.1,3.4-0.3,4.4L25,63c0.3,5.3,4.9,8.9,10.5,9c4.2,0,7.1-1.4,9.7-4.7L63.5,74.3 M45,50.9
			c-0.4-4.8-4.4-8-9.8-8c-5.4,0-9.5,3.1-10,7.9L45,50.9z"/>
	</g>
</g>
<g>
	<g>
		<path class="st0" d="M136.8,2.9l-0.5,84.6L115,87.4l0-6.3c-4.2,5.1-10.5,7.8-17.7,7.7c-15.2-0.1-26.8-13.5-26.7-30.9
			c0.1-17.3,11.9-30.7,27.1-30.6c7.3,0,13.6,2.7,17.6,7.9l0.2-32.4L136.8,2.9 M103.8,69.7c6.6,0,12-5.2,12-11.6
			c0-6.4-5.3-11.7-11.9-11.8c-6.4,0-11.9,5.2-11.9,11.6C92,64.4,97.3,69.7,103.8,69.7z"/>
	</g>
</g>
<g>
	<g>
		<path class="st0" d="M169,87c-15.8-0.1-27.1-11.5-27-29.3c0.1-17.3,11.6-30.1,27.3-30c7.5,0,13.4,3.1,16.9,7.8l0-6.2l21.1,0.1
			l-0.3,53.4c-0.1,19.4-12.2,31.8-34.6,31.6c-14.6-0.1-24.3-4.9-29.8-14l16.7-10.6c2.7,4.7,7.6,7.2,13.5,7.2c8.3,0,13-4.5,13.1-14
			l0-2.8C182.5,84.2,176.3,87,169,87 M175.2,46.4c-6.2,0-11.6,5-11.7,11.4c0,6.4,5.3,11.5,11.5,11.5c6.2,0,11.6-5,11.7-11.4
			C186.8,51.5,181.4,46.4,175.2,46.4z"/>
	</g>
</g>
<g>
	<g>
		<path class="st0" d="M272.1,75.5c-5.7,9.4-15.3,14.3-28.2,14.2c-19.1-0.1-31.2-12.4-31.1-31C212.9,41,226.6,27.8,244,28
			c18,0.1,30.4,12.8,30.2,32c0,1.9-0.1,3.4-0.3,4.4l-40.4-0.2c0.3,5.3,4.9,8.9,10.5,9c4.2,0,7.2-1.4,9.7-4.7L272.1,75.5 M253.6,52.1
			c-0.4-4.8-4.4-8-9.8-8c-5.4,0-9.5,3.1-10,7.9L253.6,52.1z"/>
	</g>
</g>
<g>
	<g>
		<path class="st0" d="M310.9,28.3c4.6,0,9.6,1.1,13.7,3.1l-0.1,19.4c-3.4-2.2-6.9-3.3-10.6-3.3c-7.4,0-13,4.6-13.1,11.6
			c0,7,5.4,11.7,12.9,11.8c3.7,0,7.4-1.1,10.7-3.4L324.2,87c-4.6,2.3-9.6,3.2-14.1,3.2C292.5,90,279,78,279.1,59.1
			C279.2,41.2,292.4,28.2,310.9,28.3"/>
	</g>
</g>
<g>
	<g>
		<path class="st0" d="M395.5,30.5L395.1,89l-21.1-0.1l0-6.3c-4.5,5.1-10.6,7.8-18,7.7c-15.1-0.1-26.6-13.5-26.5-30.9
			c0.1-17.3,11.8-30.7,26.9-30.6c7.4,0,13.6,2.7,17.9,7.9l0-6.3L395.5,30.5 M362.8,71.3c6.6,0,12-5.2,12-11.6
			c0-6.4-5.3-11.7-11.9-11.8c-6.6,0-12,5.2-12,11.6C350.9,65.9,356.3,71.2,362.8,71.3z"/>
	</g>
</g>
<g>
	<g>
		<path class="st0" d="M426.7,90.8c-9.9-0.1-19.8-2.7-26.8-7.3l7.6-15.2c5.8,3.3,13,5.7,19.5,5.7c3,0,5-0.6,5-2.5
			c0-1.6-2-2.2-6.4-3.3l-3-0.7c-13.2-3.1-19.9-8.2-19.8-18.6c0.1-12.3,10.4-19.8,25.5-19.7c8.3,0,16.1,2.2,24.2,6.2l-6.6,15.3
			c-6-3-11.7-5-17.6-5c-3.2,0-4.5,0.8-4.5,2.4c0,1.4,1.9,1.9,6.7,3.2l3.4,1c13,3.7,19.4,8.9,19.3,18.4
			C453.1,83.6,442.2,90.9,426.7,90.8"/>
	</g>
</g>
<g>
	<g>
		<path class="st0" d="M485.7,12.9L485.6,31l13.7,0.1l-0.1,17.2l-13.7-0.1L485.4,64c0,5.7,2.5,8,7.4,8c2.2,0,4.3-0.4,6.2-1.1L499,89
			c-2.5,0.9-7.3,2.1-13.4,2c-13.5-0.1-21.6-8.2-21.5-22.1l0.1-20.8l-7.8,0l0.1-17.2l7.8,0l0.1-18.1L485.7,12.9"/>
	</g>
</g>
</svg>
