<svg id="Layer_1" data-name="Layer 1" xmlns="http://www.w3.org/2000/svg" xmlns:xlink="http://www.w3.org/1999/xlink" width="800" height="268" viewBox="0 0 800 268"><defs><style>.cls-1{fill:#fff;}.cls-2{fill:url(#linear-gradient);}.cls-3{fill:url(#linear-gradient-2);}.cls-4{opacity:0.5;}.cls-5{fill:none;}</style><linearGradient id="linear-gradient" x1="302.53" y1="146.54" x2="249.2" y2="127.13" gradientUnits="userSpaceOnUse"><stop offset="0.06" stop-color="#fff"/><stop offset="0.15" stop-color="#fff" stop-opacity="0.97"/><stop offset="0.29" stop-color="#fff" stop-opacity="0.89"/><stop offset="0.47" stop-color="#fff" stop-opacity="0.76"/><stop offset="0.66" stop-color="#fff" stop-opacity="0.58"/><stop offset="0.88" stop-color="#fff" stop-opacity="0.35"/><stop offset="1" stop-color="#fff" stop-opacity="0.2"/></linearGradient><linearGradient id="linear-gradient-2" x1="593.75" y1="146.54" x2="540.42" y2="127.13" xlink:href="#linear-gradient"/></defs><title>stackpath_logo-freelogovectors.net_</title><rect x="25" y="29" width="750" height="210"/><path class="cls-1" d="M360,412.61l.11.34q-.57,14.85-8.7,22.67t-23.6,7.81q-15.52,0-25.24-9.62t-9.71-25V391.23q0-15.3,9.33-24.94t24.3-9.65q15.85,0,24.25,8.05t9.49,22.89l-.12.35H341.16q-.41-8.22-3.65-12.23t-11.06-4A12.07,12.07,0,0,0,316,377.06q-3.8,5.37-3.79,14.05v17.74q0,8.75,4.14,14.13a13.57,13.57,0,0,0,11.38,5.39q7,0,9.94-3.77t3.34-12Z" transform="translate(0 -266)"/><path class="cls-1" d="M134.24,419.78a8.5,8.5,0,0,0-2.93-6.9q-2.92-2.43-10.52-5.15-15.87-5.06-23.51-10.81t-7.65-16.65q0-10.61,9.12-17.15t23.13-6.55q13.92,0,22.79,7.21a22.08,22.08,0,0,1,8.6,18.57l-.12.35H134.3a10.66,10.66,0,0,0-3.4-8.2q-3.39-3.15-9.36-3.16t-9.2,2.61a7.89,7.89,0,0,0-3.33,6.43,6.83,6.83,0,0,0,3.36,5.94q3.36,2.24,12.61,5.59,14.27,4.29,21.48,10.54t7.21,17.21q0,11.13-8.59,17.41t-22.8,6.29q-14.25,0-24.65-7.21T87.51,415.38l.11-.35h18.91q0,7.29,3.91,10.42t11.84,3.13c4,0,7-.81,9-2.43a7.83,7.83,0,0,0,3-6.37" transform="translate(0 -266)"/><polygon class="cls-1" points="158.2 91.13 158.2 107.81 181.11 107.81 181.11 176.64 198.5 176.64 198.5 107.81 221.26 107.81 221.26 91.13 158.2 91.13"/><polygon class="cls-1" points="574.65 91.13 574.65 107.81 597.55 107.81 597.55 176.64 614.95 176.64 614.95 107.81 637.71 107.81 637.71 91.13 574.65 91.13"/><polygon class="cls-1" points="695.25 91.13 695.25 125.48 666.97 125.48 666.97 91.13 649.72 91.13 649.72 176.64 666.97 176.64 666.97 142.15 695.25 142.15 695.25 176.64 712.5 176.64 712.5 91.13 695.25 91.13"/><path class="cls-1" d="M466.45,413.31v29.31H446.69V357.1h31.79q15.09,0,23.95,7.79t8.86,20.35q0,12.63-8.86,20.35t-23.95,7.72Zm0-15.27h12q6.4,0,9.76-3.55a12.78,12.78,0,0,0,3.35-9.13,13.27,13.27,0,0,0-3.35-9.34q-3.35-3.64-9.76-3.64h-12Z" transform="translate(0 -266)"/><path class="cls-1" d="M434.68,438.63c-10-11.55-25.56-29.46-33.7-39l33.7-39.17v-3.3H415.12c-9.05,10.69-18,21-27,31.63V357.13H370.86v85.51h17.25V411l27.15,31.64h19.42Z" transform="translate(0 -266)"/><polygon class="cls-1" points="534.44 91.12 505.02 176.63 523.4 176.63 553.53 91.12 534.44 91.12"/><polygon class="cls-1" points="243.21 91.12 213.8 176.63 232.18 176.63 262.3 91.12 243.21 91.12"/><polygon class="cls-2" points="262.3 91.13 253.1 117.25 262.3 143.58 243.82 143.58 237.96 160.24 267.54 160.24 273.19 176.63 291.57 176.63 262.3 91.13"/><polygon class="cls-3" points="553.52 91.13 544.32 117.25 553.52 143.58 535.05 143.58 529.18 160.24 558.76 160.24 564.41 176.63 582.8 176.63 553.52 91.13"/><g class="cls-4"><path class="cls-1" d="M724.61,358.54H722v7.11h-1.75v-7.11h-2.58v-1.42h7Z" transform="translate(0 -266)"/><path class="cls-1" d="M727.9,357.12l2.19,6.18,2.18-6.18h2.31v8.53h-1.76v-2.33l.17-4-2.3,6.36h-1.21l-2.29-6.35.17,4v2.33h-1.75v-8.53Z" transform="translate(0 -266)"/></g><rect class="cls-5" width="800" height="268"/></svg>